<svg xmlns="http://www.w3.org/2000/svg" width="960" height="540" viewBox="0 0 960 540">
  <defs>
    <linearGradient id="bg" x1="0" y1="0" x2="1" y2="1">
      <stop offset="0" stop-color="#0b0f14"/>
      <stop offset="1" stop-color="#05070a"/>
    </linearGradient>
    <linearGradient id="glow" x1="0" y1="0" x2="1" y2="0">
      <stop offset="0" stop-color="#5865F2" stop-opacity="0.9"/>
      <stop offset="1" stop-color="#5865F2" stop-opacity="0.2"/>
    </linearGradient>
    <filter id="softGlow" x="-20%" y="-20%" width="140%" height="140%">
      <feGaussianBlur stdDeviation="8" result="blur"/>
      <feMerge>
        <feMergeNode in="blur"/>
        <feMergeNode in="SourceGraphic"/>
      </feMerge>
    </filter>
  </defs>
  <rect width="960" height="540" fill="url(#bg)"/>
  <rect x="48" y="56" width="864" height="428" rx="22" fill="#0e141c" stroke="#5865F2" stroke-opacity="0.35"/>
  <!-- Discord icon -->
  <g transform="translate(380, 100)" filter="url(#softGlow)">
    <path d="M100 46.9c-13.4-6.2-27.8-10.7-42.8-13.2-1.8 3.3-3.9 7.7-5.3 11.2-15.9-2.4-31.7-2.4-47.3 0-1.4-3.5-3.5-7.9-5.4-11.2-15.1 2.5-29.5 7-42.9 13.3C-72.3 99.8-84.2 151.4-79.4 202.2c17.9 13.2 35.3 21.2 52.3 26.5 4.2-5.7 7.9-11.8 11.2-18.2-6.2-2.3-12.1-5.2-17.7-8.6 1.5-1.1 3-2.2 4.4-3.3C11.7 215 55.9 215 93.5 198.6c1.5 1.1 2.9 2.2 4.4 3.3-5.7 3.4-11.6 6.3-17.8 8.7 3.2 6.4 7 12.5 11.2 18.2 17.1-5.3 34.5-13.4 52.4-26.5C148.4 146 132.9 94.9 100 46.9zM-35.1 172.9c-10.2 0-18.5-9.4-18.5-20.8s8.2-20.8 18.5-20.8c10.2 0 18.7 9.3 18.5 20.8.1 11.4-8.2 20.8-18.5 20.8zm68.3 0c-10.2 0-18.5-9.4-18.5-20.8s8.2-20.8 18.5-20.8c10.2 0 18.7 9.3 18.5 20.8 0 11.4-8.2 20.8-18.5 20.8z" fill="#5865F2" transform="scale(0.35) translate(-50, -100)"/>
  </g>
  <!-- Title -->
  <text x="480" y="290" text-anchor="middle" font-family="Poppins, sans-serif" font-weight="700" font-size="32" fill="#ffffff">Bot The Isle Evrima</text>
  <!-- Subtitle -->
  <text x="480" y="335" text-anchor="middle" font-family="Poppins, sans-serif" font-weight="300" font-size="18" fill="#9aa4af">Bot Discord para The Isle Evrima</text>
  <!-- Tech tags -->
  <g transform="translate(200, 370)">
    <rect x="0" y="0" width="110" height="34" rx="17" fill="none" stroke="#5865F2" stroke-width="1.5"/>
    <text x="55" y="22" text-anchor="middle" font-family="Poppins, sans-serif" font-size="14" fill="#5865F2">Discord.js</text>
  </g>
  <g transform="translate(330, 370)">
    <rect x="0" y="0" width="100" height="34" rx="17" fill="none" stroke="#5865F2" stroke-width="1.5"/>
    <text x="50" y="22" text-anchor="middle" font-family="Poppins, sans-serif" font-size="14" fill="#5865F2">Node.js</text>
  </g>
  <g transform="translate(450, 370)">
    <rect x="0" y="0" width="90" height="34" rx="17" fill="none" stroke="#5865F2" stroke-width="1.5"/>
    <text x="45" y="22" text-anchor="middle" font-family="Poppins, sans-serif" font-size="14" fill="#5865F2">SQLite</text>
  </g>
  <g transform="translate(560, 370)">
    <rect x="0" y="0" width="100" height="34" rx="17" fill="none" stroke="#5865F2" stroke-width="1.5"/>
    <text x="50" y="22" text-anchor="middle" font-family="Poppins, sans-serif" font-size="14" fill="#5865F2">Express</text>
  </g>
  <!-- Accent line -->
  <rect x="48" y="56" width="864" height="6" rx="3" fill="url(#glow)" opacity="0.6"/>
</svg>
